<svg width="70" height="70" viewBox="0 0 70 70" fill="none" xmlns="http://www.w3.org/2000/svg">
<rect width="70" height="70" rx="35" fill="#EDEEFD"/>
<g clip-path="url(#clip0_7_12502)">
<g clip-path="url(#clip1_7_12502)">
<g clip-path="url(#clip2_7_12502)">
<path d="M34.9897 24.1309C29.2759 24.1309 24.6273 28.7794 24.6273 34.4933C24.6273 38.1024 26.4951 41.4256 29.5415 43.3092V48.3984H31.1796V48.6899C31.1796 50.7908 32.8888 52.5 34.9897 52.5C37.0906 52.5 38.7998 50.7908 38.7998 48.6899V48.3984H40.4379V43.3092C43.4842 41.4256 45.3521 38.1024 45.3521 34.4933C45.3521 28.7794 40.7035 24.1309 34.9897 24.1309ZM38.3871 44.0933V46.3477H31.5923V44.0933H38.3871ZM36.749 48.6899C36.749 49.66 35.9598 50.4492 34.9897 50.4492C34.0196 50.4492 33.2304 49.66 33.2304 48.6899V48.3984H36.7491L36.749 48.6899ZM38.9261 41.8154L38.5045 42.0426H31.475L31.0534 41.8154C28.3546 40.3611 26.6781 37.5554 26.6781 34.4933C26.6781 29.9102 30.4067 26.1816 34.9897 26.1816C39.5727 26.1816 43.3013 29.9102 43.3013 34.4933C43.3013 37.5554 41.6248 40.3611 38.9261 41.8154Z" fill="#E4242F"/>
<path d="M33.9643 17.5H36.0151V21.9434H33.9643V17.5Z" fill="#E4242F"/>
<path d="M43.133 24.8954L46.2744 21.7539L47.7243 23.2038L44.5829 26.3453L43.133 24.8954Z" fill="#E4242F"/>
<path d="M47.536 33.4644H51.9794V35.5152H47.536V33.4644Z" fill="#E4242F"/>
<path d="M43.1306 44.0866L44.5805 42.6367L47.722 45.7781L46.2721 47.228L43.1306 44.0866Z" fill="#E4242F"/>
<path d="M22.2478 45.776L25.3893 42.6345L26.8392 44.0844L23.6977 47.2259L22.2478 45.776Z" fill="#E4242F"/>
<path d="M18 33.4644H22.4434V35.5152H18V33.4644Z" fill="#E4242F"/>
<path d="M22.25 23.2014L23.6999 21.7515L26.8413 24.8929L25.3914 26.3428L22.25 23.2014Z" fill="#E4242F"/>
<path d="M33.6985 35.0086L32.2464 33.5566L30.7963 35.0067L33.6985 37.9089L39.1831 32.4243L37.733 30.9741L33.6985 35.0086Z" fill="#E4242F"/>
</g>
</g>
</g>
<defs>
<clipPath id="clip0_7_12502">
<rect width="34" height="35" fill="white" transform="translate(18 17.5)"/>
</clipPath>
<clipPath id="clip1_7_12502">
<rect width="34" height="35" fill="white" transform="translate(18 17.5)"/>
</clipPath>
<clipPath id="clip2_7_12502">
<rect width="34" height="35" fill="white" transform="translate(18 17.5)"/>
</clipPath>
</defs>
</svg>
