<svg width="70" height="70" viewBox="0 0 70 70" fill="none" xmlns="http://www.w3.org/2000/svg">
<rect width="70" height="70" rx="35" fill="#EDEEFD"/>
<g clip-path="url(#clip0_7_12534)">
<g clip-path="url(#clip1_7_12534)">
<g clip-path="url(#clip2_7_12534)">
<path d="M35 23.9431C35.5663 23.9431 36.0254 23.484 36.0254 22.9177V18.5254C36.0254 17.9591 35.5663 17.5 35 17.5C34.4337 17.5 33.9746 17.9591 33.9746 18.5254V22.9177C33.9746 23.484 34.4337 23.9431 35 23.9431Z" fill="#E4242F"/>
<path d="M35 46.0569C34.4337 46.0569 33.9746 46.516 33.9746 47.0822V51.4746C33.9746 52.0409 34.4337 52.5 35 52.5C35.5663 52.5 36.0254 52.0409 36.0254 51.4746V47.0822C36.0254 46.516 35.5663 46.0569 35 46.0569Z" fill="#E4242F"/>
<path d="M51.4746 33.9746H47.0823C46.516 33.9746 46.0569 34.4337 46.0569 35C46.0569 35.5663 46.516 36.0254 47.0823 36.0254H51.4746C52.0409 36.0254 52.5 35.5663 52.5 35C52.5 34.4337 52.0409 33.9746 51.4746 33.9746Z" fill="#E4242F"/>
<path d="M23.9431 35C23.9431 34.4337 23.484 33.9746 22.9177 33.9746H18.5254C17.9591 33.9746 17.5 34.4337 17.5 35C17.5 35.5663 17.9591 36.0254 18.5254 36.0254H22.9177C23.484 36.0254 23.9431 35.5663 23.9431 35Z" fill="#E4242F"/>
<path d="M30.7267 48.0528C26.5846 46.6974 23.3026 43.4153 21.9474 39.2732C21.7713 38.735 21.1921 38.4415 20.654 38.6175C20.1157 38.7936 19.8222 39.3727 19.9983 39.911C21.556 44.6717 25.3281 48.4441 30.0889 50.0019C30.1947 50.0366 30.3023 50.053 30.408 50.053C30.8394 50.053 31.2408 49.7786 31.3823 49.3463C31.5584 48.8081 31.2649 48.2289 30.7267 48.0528Z" fill="#E4242F"/>
<path d="M49.346 38.6175C48.8078 38.4415 48.2286 38.735 48.0525 39.2732C46.6973 43.4153 43.4153 46.6974 39.2733 48.0528C38.735 48.2289 38.4415 48.8081 38.6176 49.3463C38.7591 49.7787 39.1606 50.053 39.592 50.053C39.6977 50.053 39.8052 50.0366 39.9111 50.0019C44.6718 48.4441 48.444 44.6717 50.0016 39.911C50.1778 39.3728 49.8842 38.7937 49.346 38.6175Z" fill="#E4242F"/>
<path d="M39.2733 21.947C43.4154 23.3023 46.6974 26.5845 48.0526 30.7266C48.194 31.1589 48.5955 31.4334 49.0269 31.4334C49.1326 31.4334 49.2401 31.4169 49.346 31.3823C49.8843 31.2062 50.1778 30.6271 50.0017 30.0888C48.444 25.328 44.6719 21.5558 39.9112 19.9979C39.373 19.8218 38.7939 20.1153 38.6178 20.6536C38.4416 21.1918 38.7351 21.7709 39.2733 21.947Z" fill="#E4242F"/>
<path d="M20.6539 31.3823C20.7598 31.4169 20.8673 31.4334 20.973 31.4334C21.4044 31.4334 21.8059 31.1589 21.9473 30.7266C23.3025 26.5845 26.5845 23.3024 30.7266 21.947C31.2648 21.7709 31.5584 21.1917 31.3822 20.6535C31.2061 20.1153 30.6268 19.8218 30.0888 19.9979C25.3282 21.5557 21.556 25.328 19.9982 30.0888C19.8222 30.627 20.1158 31.2061 20.6539 31.3823Z" fill="#E4242F"/>
<path d="M39.1797 35C39.1797 32.6953 37.3047 30.8203 35 30.8203C32.6953 30.8203 30.8203 32.6953 30.8203 35C30.8203 37.3047 32.6953 39.1797 35 39.1797C37.3047 39.1797 39.1797 37.3047 39.1797 35ZM32.8711 35C32.8711 33.8261 33.8261 32.8711 35 32.8711C36.1739 32.8711 37.1289 33.8261 37.1289 35C37.1289 36.1739 36.1739 37.1289 35 37.1289C33.8261 37.1289 32.8711 36.1739 32.8711 35Z" fill="#E4242F"/>
<path d="M28.3201 36.7857C28.1737 36.2387 27.6116 35.9138 27.0645 36.0603C26.5175 36.2067 26.1927 36.7688 26.3391 37.3159C27.3868 41.2307 30.9483 43.9649 35 43.9649C39.0517 43.9649 42.6132 41.2307 43.6609 37.3159C43.8074 36.7688 43.4825 36.2067 42.9355 36.0603C42.3882 35.9138 41.8262 36.2387 41.6799 36.7857C40.8718 39.8052 38.125 41.9141 35.0001 41.9141C31.8752 41.9141 29.1282 39.8052 28.3201 36.7857Z" fill="#E4242F"/>
<path d="M43.6609 32.6841C42.6133 28.7693 39.0518 26.0352 35 26.0352C30.9483 26.0352 27.3868 28.7693 26.3391 32.6841C26.1927 33.2312 26.5175 33.7933 27.0645 33.9397C27.6116 34.0862 28.1737 33.7613 28.3201 33.2143C29.1282 30.1948 31.8751 28.086 35 28.086C38.1249 28.086 40.8717 30.1949 41.6798 33.2143C41.8024 33.6726 42.2168 33.9749 42.6697 33.9749C42.7574 33.9749 42.8466 33.9635 42.9354 33.9397C43.4825 33.7934 43.8073 33.2312 43.6609 32.6841Z" fill="#E4242F"/>
</g>
</g>
</g>
<defs>
<clipPath id="clip0_7_12534">
<rect width="35" height="35" fill="white" transform="translate(17.5 17.5)"/>
</clipPath>
<clipPath id="clip1_7_12534">
<rect width="35" height="35" fill="white" transform="translate(17.5 17.5)"/>
</clipPath>
<clipPath id="clip2_7_12534">
<rect width="35" height="35" fill="white" transform="translate(17.5 17.5)"/>
</clipPath>
</defs>
</svg>
