<svg width="70" height="70" viewBox="0 0 70 70" fill="none" xmlns="http://www.w3.org/2000/svg">
<rect width="70" height="70" rx="35" fill="#EDEEFD"/>
<g clip-path="url(#clip0_7_12520)">
<g clip-path="url(#clip1_7_12520)">
<g clip-path="url(#clip2_7_12520)">
<path d="M34.753 30.5403C32.1664 30.5403 30.0614 32.6446 30.0614 35.2312C30.0614 37.8178 32.1664 39.9221 34.753 39.9221C37.3396 39.9221 39.4439 37.8178 39.4439 35.2312C39.4439 32.6446 37.3396 30.5403 34.753 30.5403ZM34.753 37.8373C33.3159 37.8373 32.1463 36.6683 32.1463 35.2312C32.1463 33.794 33.3159 32.6251 34.753 32.6251C36.1895 32.6251 37.3591 33.794 37.3591 35.2312C37.3591 36.6683 36.1895 37.8373 34.753 37.8373Z" fill="#E4242F"/>
<path d="M44.4399 29.855C42.6866 29.855 41.2598 31.2817 41.2598 33.0358V35.1346C41.2598 38.6913 38.3668 41.5844 34.8107 41.5844C31.254 41.5844 28.3602 38.6913 28.3602 35.1346V33.0358C28.3602 31.2818 26.9334 29.855 25.1794 29.855C23.426 29.855 22 31.2817 22 33.0358V35.0957C22 39.0444 23.8361 42.7825 26.939 45.203V51.4576C26.939 52.033 27.4053 52.5 27.9814 52.5H41.5184C42.0938 52.5 42.5608 52.033 42.5608 51.4576V45.2635C45.7388 42.8159 47.62 39.0082 47.62 34.9685V33.0358C47.62 31.2818 46.194 29.855 44.4399 29.855ZM40.4759 44.7367V50.4151H29.0239V44.6804C29.0239 44.3441 28.8605 44.0279 28.5867 43.8319C25.7673 41.82 24.0849 38.5544 24.0849 35.0957V33.0358C24.0849 32.4312 24.5755 31.9398 25.1794 31.9398C25.784 31.9398 26.2753 32.4312 26.2753 33.0358V35.1346C26.2753 39.8408 30.1038 43.6693 34.8107 43.6693C39.5162 43.6693 43.3447 39.8408 43.3447 35.1346V33.0358C43.3447 32.4312 43.836 31.9398 44.4406 31.9398C45.0445 31.9398 45.5352 32.4312 45.5352 33.0358V34.9685C45.5352 38.5148 43.8089 41.8478 40.9179 43.8847C40.6406 44.08 40.4759 44.3976 40.4759 44.7367Z" fill="#E4242F"/>
<path d="M30.7029 25.3274L30.5423 28.4185C30.5035 29.1795 31.267 29.7205 31.9684 29.4408L34.81 28.3115L37.6517 29.4408C38.3542 29.7195 39.1165 29.1801 39.0777 28.4185L38.9172 25.3274L40.8352 22.9972C41.3127 22.4192 41.0389 21.5353 40.3126 21.3314L37.3487 20.4982L35.6801 17.9679C35.2694 17.3438 34.3502 17.3443 33.9399 17.9679L32.2714 20.4982L29.3074 21.3314C28.58 21.5357 28.3081 22.4202 28.7848 22.9972L30.7029 25.3274ZM33.7982 21.9708L34.81 20.4357L35.8219 21.9708C35.9602 22.18 36.1686 22.3329 36.4105 22.4003L38.2104 22.9062L37.0505 24.3149C36.8851 24.5157 36.801 24.7708 36.8142 25.0314L36.9115 26.9036L35.195 26.2212C34.9489 26.123 34.6712 26.1229 34.425 26.2212L32.7085 26.9036L32.8058 25.0314C32.819 24.7708 32.7349 24.5157 32.5695 24.3149L31.4096 22.9062L33.2095 22.4003C33.4514 22.3329 33.6599 22.18 33.7982 21.9708Z" fill="#E4242F"/>
<path d="M26.7955 27.6071C27.2026 28.0142 27.8626 28.0142 28.2697 27.6071C28.6768 27.2001 28.6768 26.54 28.2697 26.1329L24.3496 22.2127C23.9425 21.8057 23.2825 21.8057 22.8754 22.2127C22.4683 22.6198 22.4683 23.2798 22.8754 23.6869L26.7955 27.6071Z" fill="#E4242F"/>
<path d="M43.0696 27.6071L46.9897 23.6869C47.3968 23.2799 47.3968 22.6198 46.9897 22.2127C46.5827 21.8057 45.9226 21.8057 45.5155 22.2127L41.5954 26.1329C41.1883 26.5399 41.1883 27.2 41.5954 27.6071C42.0025 28.0142 42.6625 28.0141 43.0696 27.6071Z" fill="#E4242F"/>
</g>
</g>
</g>
<defs>
<clipPath id="clip0_7_12520">
<rect width="26" height="35" fill="white" transform="translate(22 17.5)"/>
</clipPath>
<clipPath id="clip1_7_12520">
<rect width="26" height="35" fill="white" transform="translate(22 17.5)"/>
</clipPath>
<clipPath id="clip2_7_12520">
<rect width="26" height="35" fill="white" transform="translate(22 17.5)"/>
</clipPath>
</defs>
</svg>
