<svg width="50" height="50" viewBox="0 0 50 50" fill="none" xmlns="http://www.w3.org/2000/svg">
<rect x="2.5" y="2.5" width="45" height="45" rx="22.5" stroke="#E4242F" stroke-width="5"/>
<path d="M34.375 15.75C35.3906 15.75 36.25 16.6094 36.25 17.625V27C36.25 30.4766 33.4375 33.25 30 33.25H29.6875C29.1406 33.25 28.75 32.8594 28.75 32.3125V30.4375C28.75 29.9297 29.1406 29.5 29.6875 29.5H30C31.3672 29.5 32.5 28.4062 32.5 27V24.5H29.375C28.3203 24.5 27.5 23.6797 27.5 22.625V17.625C27.5 16.6094 28.3203 15.75 29.375 15.75H34.375ZM23.125 15.75C24.1406 15.75 25 16.6094 25 17.625V27C25 30.4766 22.1875 33.25 18.75 33.25H18.4375C17.8906 33.25 17.5 32.8594 17.5 32.3125V30.4375C17.5 29.9297 17.8906 29.5 18.4375 29.5H18.75C20.1172 29.5 21.25 28.4062 21.25 27V24.5H18.125C17.0703 24.5 16.25 23.6797 16.25 22.625V17.625C16.25 16.6094 17.0703 15.75 18.125 15.75H23.125Z" fill="#E4242F"/>
</svg>
